<svg xmlns="http://www.w3.org/2000/svg" width="32" height="32" viewBox="0 0 32 32">
  <rect width="32" height="32" rx="6" fill="#6366f1"/>
  <path d="M8 24h16a2 2 0 0 0 2-2V8a2 2 0 0 0-2-2H12a2 2 0 0 0-2 2v14a2 2 0 0 1-2 2Zm0 0a2 2 0 0 1-2-2v-8c0-1 .9-2 2-2h2" stroke="white" stroke-width="1.5" fill="none" stroke-linecap="round" stroke-linejoin="round"/>
  <path d="M20 14h-6M18 18h-4M14 10h6v3h-6z" stroke="white" stroke-width="1.5" fill="none" stroke-linecap="round" stroke-linejoin="round"/>
</svg>
